<svg width="91" height="24" viewBox="0 0 91 24" fill="currentColor" xmlns="http://www.w3.org/2000/svg">
<g id="logo_caffeine">
<path id="viboud" d="M6.336 19.756L9.768 9.878H12.43L7.81 22H4.818L0.22 9.878H2.904L6.336 19.756ZM15.6018 8.272C15.1471 8.272 14.7658 8.118 14.4578 7.81C14.1498 7.502 13.9958 7.12067 13.9958 6.666C13.9958 6.21133 14.1498 5.83 14.4578 5.522C14.7658 5.214 15.1471 5.06 15.6018 5.06C16.0418 5.06 16.4158 5.214 16.7238 5.522C17.0318 5.83 17.1858 6.21133 17.1858 6.666C17.1858 7.12067 17.0318 7.502 16.7238 7.81C16.4158 8.118 16.0418 8.272 15.6018 8.272ZM16.8338 9.878V22H14.3258V9.878H16.8338ZM22.6346 11.682C23.0599 11.0953 23.6392 10.6187 24.3726 10.252C25.1206 9.87067 25.9492 9.68 26.8586 9.68C27.9292 9.68 28.8972 9.93667 29.7626 10.45C30.6279 10.9633 31.3099 11.6967 31.8086 12.65C32.3072 13.5887 32.5566 14.6667 32.5566 15.884C32.5566 17.1013 32.3072 18.194 31.8086 19.162C31.3099 20.1153 30.6206 20.8633 29.7406 21.406C28.8752 21.934 27.9146 22.198 26.8586 22.198C25.9199 22.198 25.0839 22.0147 24.3506 21.648C23.6319 21.2813 23.0599 20.812 22.6346 20.24V22H20.1266V5.72H22.6346V11.682ZM30.0046 15.884C30.0046 15.048 29.8286 14.3293 29.4766 13.728C29.1392 13.112 28.6846 12.65 28.1126 12.342C27.5552 12.0193 26.9539 11.858 26.3086 11.858C25.6779 11.858 25.0766 12.0193 24.5046 12.342C23.9472 12.6647 23.4926 13.134 23.1406 13.75C22.8032 14.366 22.6346 15.092 22.6346 15.928C22.6346 16.764 22.8032 17.4973 23.1406 18.128C23.4926 18.744 23.9472 19.2133 24.5046 19.536C25.0766 19.8587 25.6779 20.02 26.3086 20.02C26.9539 20.02 27.5552 19.8587 28.1126 19.536C28.6846 19.1987 29.1392 18.7147 29.4766 18.084C29.8286 17.4533 30.0046 16.72 30.0046 15.884ZM40.2947 22.198C39.1507 22.198 38.1167 21.9413 37.1927 21.428C36.2687 20.9 35.5427 20.1667 35.0147 19.228C34.4867 18.2747 34.2227 17.1747 34.2227 15.928C34.2227 14.696 34.4941 13.6033 35.0367 12.65C35.5794 11.6967 36.3201 10.9633 37.2587 10.45C38.1974 9.93667 39.2461 9.68 40.4047 9.68C41.5634 9.68 42.6121 9.93667 43.5507 10.45C44.4894 10.9633 45.2301 11.6967 45.7727 12.65C46.3154 13.6033 46.5867 14.696 46.5867 15.928C46.5867 17.16 46.3081 18.2527 45.7507 19.206C45.1934 20.1593 44.4307 20.9 43.4627 21.428C42.5094 21.9413 41.4534 22.198 40.2947 22.198ZM40.2947 20.02C40.9401 20.02 41.5414 19.866 42.0987 19.558C42.6707 19.25 43.1327 18.788 43.4847 18.172C43.8367 17.556 44.0127 16.808 44.0127 15.928C44.0127 15.048 43.8441 14.3073 43.5067 13.706C43.1694 13.09 42.7221 12.628 42.1647 12.32C41.6074 12.012 41.0061 11.858 40.3607 11.858C39.7154 11.858 39.1141 12.012 38.5567 12.32C38.0141 12.628 37.5814 13.09 37.2587 13.706C36.9361 14.3073 36.7747 15.048 36.7747 15.928C36.7747 17.2333 37.1047 18.2453 37.7647 18.964C38.4394 19.668 39.2827 20.02 40.2947 20.02ZM60.044 9.878V22H57.536V20.57C57.14 21.0687 56.6193 21.4647 55.974 21.758C55.3433 22.0367 54.6687 22.176 53.95 22.176C52.9967 22.176 52.1387 21.978 51.376 21.582C50.628 21.186 50.034 20.5993 49.594 19.822C49.1687 19.0447 48.956 18.106 48.956 17.006V9.878H51.442V16.632C51.442 17.7173 51.7133 18.5533 52.256 19.14C52.7987 19.712 53.5393 19.998 54.478 19.998C55.4167 19.998 56.1573 19.712 56.7 19.14C57.2573 18.5533 57.536 17.7173 57.536 16.632V9.878H60.044ZM62.5171 15.884C62.5171 14.6667 62.7665 13.5887 63.2651 12.65C63.7785 11.7113 64.4678 10.9853 65.3331 10.472C66.2131 9.944 67.1885 9.68 68.2591 9.68C69.0511 9.68 69.8285 9.856 70.5911 10.208C71.3685 10.5453 71.9845 11 72.4391 11.572V5.72H74.9691V22H72.4391V20.174C72.0285 20.7607 71.4565 21.2447 70.7231 21.626C70.0045 22.0073 69.1758 22.198 68.2371 22.198C67.1811 22.198 66.2131 21.934 65.3331 21.406C64.4678 20.8633 63.7785 20.1153 63.2651 19.162C62.7665 18.194 62.5171 17.1013 62.5171 15.884ZM72.4391 15.928C72.4391 15.092 72.2631 14.366 71.9111 13.75C71.5738 13.134 71.1265 12.6647 70.5691 12.342C70.0118 12.0193 69.4105 11.858 68.7651 11.858C68.1198 11.858 67.5185 12.0193 66.9611 12.342C66.4038 12.65 65.9491 13.112 65.5971 13.728C65.2598 14.3293 65.0911 15.048 65.0911 15.884C65.0911 16.72 65.2598 17.4533 65.5971 18.084C65.9491 18.7147 66.4038 19.1987 66.9611 19.536C67.5331 19.8587 68.1345 20.02 68.7651 20.02C69.4105 20.02 70.0118 19.8587 70.5691 19.536C71.1265 19.2133 71.5738 18.744 71.9111 18.128C72.2631 17.4973 72.4391 16.764 72.4391 15.928Z"/>
<g id="Music">
<path id="Vector" d="M86.572 2.83381C85.8655 2.45581 85.3551 2.18223 85.1521 1.16898C85.0786 0.801479 84.7415 0.554146 84.3652 0.586229C83.9925 0.623562 83.7084 0.937396 83.7084 1.31248V8.48106C83.2802 8.28623 82.7879 8.16665 82.25 8.16665C80.6144 8.16665 79.3334 9.19156 79.3334 10.5C79.3334 11.8084 80.6144 12.8333 82.25 12.8333C83.8857 12.8333 85.1667 11.8084 85.1667 10.5V3.6989C85.4135 3.86806 85.6608 3.9999 85.8836 4.11948C86.7102 4.56165 87.2084 4.82823 87.2084 6.27081C87.2084 6.67331 87.535 6.99998 87.9375 6.99998C88.34 6.99998 88.6667 6.67331 88.6667 6.27081C88.6667 3.95498 87.5053 3.33315 86.572 2.83381Z" fill="#017CDA"/>
</g>
</g>
</svg>
